<?xml version="1.0" encoding="UTF-8" standalone="no"?>
<svg
   xmlns:dc="http://purl.org/dc/elements/1.1/"
   xmlns:cc="http://creativecommons.org/ns#"
   xmlns:rdf="http://www.w3.org/1999/02/22-rdf-syntax-ns#"
   xmlns:svg="http://www.w3.org/2000/svg"
   xmlns="http://www.w3.org/2000/svg"
   version="1.1"
   id="Layer_1"
   x="0px"
   y="0px"
   viewBox="0 0 186.2 200"
   xml:space="preserve"
   width="186.2"
   height="200"><metadata
   id="metadata86"><rdf:RDF><cc:Work
       rdf:about=""><dc:format>image/svg+xml</dc:format><dc:type
         rdf:resource="http://purl.org/dc/dcmitype/StillImage" /><dc:title></dc:title></cc:Work></rdf:RDF></metadata><defs
   id="defs84" />
<style
   type="text/css"
   id="style71">
	.st0{fill:#DD0031;}
	.st1{fill:#C3002F;}
	.st2{fill:#FFFFFF;}
</style>
<g
   id="g79"
   transform="translate(-31.9,-30)">
	<polygon
   class="st0"
   points="125,30 31.9,63.2 46.1,186.3 125,230 125,230 125,230 203.9,186.3 218.1,63.2 125,30 "
   id="polygon73" />
	<polygon
   class="st1"
   points="125,52.1 125,153.4 125,153.4 125,230 125,230 203.9,186.3 218.1,63.2 125,30 125,52.2 "
   id="polygon75" />
	<path
   class="st2"
   d="M 125,52.1 66.8,182.6 v 0 h 21.7 v 0 l 11.7,-29.2 h 49.4 l 11.7,29.2 v 0 H 183 v 0 L 125,52.1 v 0 0 z m 17,83.3 h -34 l 17,-40.9 z"
   id="path77" />
</g>
</svg>
